USFL
nRows=264
nColumns=2
inDegrees=yes
endheader
time	tib_ant_r	
3.49272	 95.476441	
3.52598	 95.438028	
3.55925	 95.505468	
3.59251	 95.525873	
3.62578	 95.558901	
3.65904	 95.563454	
3.6923	 95.539860	
3.72557	 95.540073	
3.75883	 95.488727	
3.7921	 95.380404	
3.82536	 95.349072	
3.85862	 95.290334	
3.89189	 95.278857	
3.92515	 95.314092	
3.95842	 95.303270	
3.99168	 95.288404	
4.02494	 95.254434	
4.05821	 95.228963	
4.09147	 95.187147	
4.12474	 95.208564	
4.158	 95.273296	
4.19126	 95.299610	
4.22453	 95.332836	
4.25779	 95.411822	
4.29106	 95.421486	
4.32432	 95.457829	
4.35758	 95.480634	
4.39085	 95.480869	
4.42411	 95.569995	
4.45738	 95.538367	
4.49064	 95.577215	
4.5239	 95.604403	
4.55717	 95.659143	
4.59043	 95.631186	
4.6237	 95.693774	
4.65696	 95.599300	
4.69022	 95.543434	
4.72349	 95.474104	
4.75675	 95.508424	
4.79002	 95.535119	
4.82328	 95.518968	
4.85654	 95.547898	
4.88981	 95.564353	
4.92307	 95.549077	
4.95634	 95.534661	
4.9896	 95.539948	
5.02286	 95.547624	
5.05613	 95.556728	
5.08939	 95.551768	
5.12266	 95.587721	
5.15592	 95.602321	
5.18918	 95.610352	
5.22245	 95.614747	
5.25571	 95.643977	
5.28898	 95.660027	
5.32224	 95.627536	
5.3555	 95.601601	
5.38877	 95.654488	
5.42203	 95.639093	
5.4553	 95.603609	
5.48856	 95.616743	
5.52182	 95.559145	
5.55509	 95.507844	
5.58835	 95.569656	
5.62162	 95.587413	
5.65488	 95.621666	
5.68814	 95.600719	
5.72141	 95.610118	
5.75467	 95.518560	
5.78794	 95.454410	
5.8212	 95.481817	
5.85446	 95.198205	
5.88773	 94.951499	
5.92099	 94.711137	
5.95426	 94.192836	
5.98752	 93.934943	
6.02078	 93.947844	
6.05405	 93.582940	
6.08731	 93.527433	
6.12058	 93.251897	
6.15384	 93.226112	
6.1871	 93.189200	
6.22037	 92.632802	
6.25363	 92.636295	
6.2869	 92.658252	
6.32016	 92.276035	
6.35342	 92.029592	
6.38669	 92.128305	
6.41995	 91.486734	
6.45322	 91.423568	
6.48648	 91.038400	
6.51974	 90.750177	
6.55301	 90.803190	
6.58627	 90.216036	
6.61954	 90.117352	
6.6528	 90.035303	
6.68606	 89.937542	
6.71933	 89.738712	
6.75259	 89.660673	
6.78586	 89.721418	
6.81912	 89.638675	
6.85238	 89.269167	
6.88565	 89.099626	
6.91891	 89.070358	
6.95218	 89.087601	
6.98544	 89.107639	
7.0187	 89.120986	
7.05197	 89.133185	
7.08523	 89.061538	
7.1185	 89.077572	
7.15176	 89.001590	
7.18502	 89.027119	
7.21829	 88.804826	
7.25155	 88.799266	
7.28482	 88.809020	
7.31808	 88.608942	
7.35134	 88.641133	
7.38461	 88.444933	
7.41787	 88.457013	
7.45114	 88.533097	
7.4844	 88.554829	
7.51766	 88.448390	
7.55093	 88.428618	
7.58419	 88.314234	
7.61746	 88.323170	
7.65072	 88.301548	
7.68398	 88.524423	
7.71725	 88.633860	
7.75051	 88.586879	
7.78378	 88.944544	
7.81704	 89.046138	
7.8503	 89.149895	
7.88357	 89.469800	
7.91683	 89.637702	
7.9501	 89.364971	
7.98336	 89.210354	
8.01662	 89.135233	
8.04989	 88.561893	
8.08315	 88.228188	
8.11642	 88.076449	
8.14968	 87.672088	
8.18294	 87.444622	
8.21621	 87.582443	
8.24947	 86.796230	
8.28274	 86.612103	
8.316	 86.316084	
8.34926	 86.098289	
8.38253	 86.067089	
8.41579	 86.003391	
8.44906	 85.916751	
8.48232	 85.941411	
8.51558	 85.699880	
8.54885	 85.559937	
8.58211	 85.509299	
8.61538	 85.335404	
8.64864	 85.224830	
8.6819	 84.967323	
8.71517	 84.756521	
8.74843	 84.757089	
8.7817	 84.643467	
8.81496	 84.529082	
8.84822	 84.447171	
8.88149	 84.387852	
8.91475	 84.377832	
8.94802	 84.243319	
8.98128	 84.370883	
9.01454	 84.325740	
9.04781	 84.259493	
9.08107	 84.378933	
9.11434	 84.528791	
9.1476	 84.449570	
9.18086	 84.395387	
9.21413	 84.460230	
9.24739	 84.387653	
9.28066	 84.335968	
9.31392	 84.252510	
9.34718	 84.156188	
9.38045	 83.966008	
9.41371	 83.982437	
9.44698	 83.732891	
9.48024	 83.705082	
9.5135	 83.582721	
9.54677	 83.483053	
9.58003	 83.497622	
9.6133	 83.524205	
9.64656	 83.639646	
9.67982	 83.610517	
9.71309	 83.704972	
9.74635	 83.580569	
9.77962	 83.600008	
9.81288	 83.360878	
9.84614	 83.226402	
9.87941	 83.462704	
9.91267	 83.533696	
9.94594	 83.632109	
9.9792	 83.711974	
10.0125	 83.622666	
10.0457	 83.515017	
10.079	 83.419282	
10.1123	 83.319236	
10.1455	 83.151478	
10.1788	 82.791689	
10.212	 82.791278	
10.2453	 82.639815	
10.2786	 82.632308	
10.3118	 82.620413	
10.3451	 82.617956	
10.3784	 82.462377	
10.4116	 82.374956	
10.4449	 82.368609	
10.4782	 82.416802	
10.5114	 82.476833	
10.5447	 82.253361	
10.578	 82.309652	
10.6112	 82.301704	
10.6445	 82.317249	
10.6777	 82.310556	
10.711	 82.278403	
10.7443	 82.301548	
10.7775	 82.260486	
10.8108	 82.114836	
10.8441	 82.026171	
10.8773	 82.015673	
10.9106	 82.104401	
10.9439	 82.124682	
10.9771	 82.090571	
11.0104	 82.095477	
11.0436	 82.069135	
11.0769	 82.152608	
11.1102	 82.094819	
11.1434	 82.082612	
11.1767	 82.094777	
11.21	 82.019515	
11.2432	 81.972888	
11.2765	 81.735082	
11.3098	 81.668103	
11.343	 81.723856	
11.3763	 81.781557	
11.4096	 81.679214	
11.4428	 81.886512	
11.4761	 81.697476	
11.5093	 81.422048	
11.5426	 81.771972	
11.5759	 81.928376	
11.6091	 81.870578	
11.6424	 82.238940	
11.6757	 82.688895	
11.7089	 83.049779	
11.7422	 83.016104	
11.7755	 83.115282	
11.8087	 84.037019	
11.842	 84.754721	
11.8752	 84.626099	
11.9085	 85.579280	
11.9418	 86.272519	
11.975	 86.224142	
12.0083	 87.017200	
12.0416	 87.193810	
12.0748	 87.428684	
12.1081	 87.060729	
12.1414	 87.287288	
12.1746	 87.405367	
12.2079	 87.264702	
12.2412	 87.277509	
